<svg width="83" height="83" viewBox="0 0 83 83" fill="none" xmlns="http://www.w3.org/2000/svg">
<path d="M27.1376 14.8555C34.7968 7.19632 47.2149 7.19632 54.8741 14.8555L68.144 28.1254C75.8032 35.7846 75.8032 48.2027 68.144 55.8619L54.8741 69.1318C47.2149 76.791 34.7968 76.791 27.1376 69.1318L13.8677 55.8619C6.20854 48.2027 6.20854 35.7846 13.8677 28.1254L27.1376 14.8555Z" fill="white"/>
<path fill-rule="evenodd" clip-rule="evenodd" d="M30.5328 12.1021C28.1706 16.1418 26.9175 26.2961 40.8035 34.5948C46.7262 31.7532 57.1133 23.2765 51.2795 12.1021C55.1139 14.3616 62.1664 20.6062 59.7015 27.508C59.22 29.1632 55.6486 34.1623 45.4155 41.9889C50.7345 46.187 57.393 51.8462 58.9073 54.6225C60.8587 57.4983 62.0912 64.9959 51.4097 71.9799C53.772 67.9401 55.025 57.7859 41.1391 49.4872C35.2163 52.3287 24.8293 60.8054 30.663 71.9799C26.8286 69.7204 19.7761 63.4758 22.2411 56.5739C22.7226 54.9187 26.2939 49.9197 36.5271 42.0931C31.208 37.895 24.5496 32.2357 23.0352 29.4595C21.0838 26.5837 19.8513 19.0861 30.5328 12.1021Z" fill="black"/>
</svg>
