<svg width="65" height="65" viewBox="0 0 65 65" fill="none" xmlns="http://www.w3.org/2000/svg">
<g clip-path="url(#clip0_1490_1027)">
<path d="M32.5 0C14.6 0 0 14.6 0 32.5C0 50.4 14.6 65 32.5 65C50.4 65 65 50.4 65 32.5C65 14.6 50.4 0 32.5 0ZM45.3 19.8C46.3 19.2 47.4 18.6 48.4 18C48.6 17.9 48.8 17.9 49 18C49.5 18.3 50.1 18.6 50.6 19L51.2 19.4C51.8 19.7 52.3 20 52.9 20.4V25.3C52.2 25.7 51.6 26.1 50.9 26.5L48.7 27.8C48.7 27.4 48.7 27 48.7 26.6C48.7 25.9 48.7 25.1 48.7 24.4C48.7 24.2 48.7 24.1 48.7 23.9C48.7 23.5 48.8 23.1 48.6 22.8C48.4 22.5 48.1 22.4 47.7 22.2H47.6C47.6 22.2 47.5 22.2 47.5 22.1C47.5 22.1 47.4 22.1 47.4 22C47 21.7 46.5 21.5 46.1 21.2C45.7 20.9 45.2 20.7 44.8 20.4C44.8 20.4 44.8 20.4 44.7 20.3L45.3 19.8ZM20 15L20.1 14.9C23.9 12.7 27.6 10.5 31.4 8.3C31.4 8.3 31.4 8.3 31.5 8.3C31.6 8.3 31.7 8.2 31.8 8.1C31.9 8.1 31.9 8.1 32 8.1H32.2C32.4 8.3 32.7 8.5 32.9 8.6C33 8.6 33.1 8.7 33.2 8.7C35.4 10 37.7 11.3 39.9 12.6L40.1 12.7C41.4 13.5 42.8 14.3 44.1 15C44.2 15.1 44.4 15.2 44.5 15.3C44.5 15.5 44.3 15.5 44.2 15.6C43.7 15.9 43.2 16.2 42.7 16.5C42.4 16.7 42.1 16.9 41.8 17C41.5 17.2 41.2 17.4 40.8 17.6C40.5 17.8 40.4 17.7 40.1 17.6C39.2 17.1 38.3 16.5 37.3 16L36.2 15.4C34.9 14.7 33.7 13.9 32.4 13.2C32.1 13 31.9 13 31.6 13.2C30.7 13.8 29.7 14.3 28.8 14.9L27.8 15.5C26.5 16.2 25.3 17 24 17.7C23.7 17.8 23.6 17.9 23.3 17.7C22.5 17.2 21.7 16.7 20.9 16.3C20.6 16.1 20.2 15.9 19.9 15.7C19.9 15.7 19.8 15.7 19.8 15.6C19.7 15.6 19.7 15.5 19.6 15.5C19.6 15.2 19.8 15.1 20 15ZM36.2 20.3C35.4 20.8 34.6 21.2 33.8 21.7H33.7C33.2 22 32.7 22.3 32.2 22.6C32.1 22.7 32 22.7 31.8 22.6C30.7 22 29.7 21.4 28.6 20.7L27.8 20.2C28.7 19.7 29.5 19.2 30.3 18.7C30.5 18.6 30.6 18.5 30.8 18.3C31.2 18 31.6 17.7 32 17.8C32.4 17.8 32.8 18.1 33.2 18.4C33.3 18.5 33.4 18.6 33.6 18.7C33.6 18.7 33.7 18.7 33.7 18.8C34.5 19.3 35.3 19.7 36.1 20.2C36.1 20.2 36.1 20.2 36.2 20.3ZM11 20.3L12.1 19.7C13.1 19.1 14 18.6 15 18C15.2 17.9 15.3 17.9 15.5 18C16.5 18.6 17.6 19.2 18.6 19.8L19.4 20.3C19.4 20.4 19.3 20.5 19.2 20.5C19.2 20.5 19.2 20.5 19.1 20.5L18.8 20.7H18.7L18.4 20.8C17.5 21.3 16.7 21.8 15.8 22.3C15.4 22.5 15.2 22.8 15.2 23.3C15.2 24.3 15.2 25.3 15.2 26.3V27.6C13.7 26.8 12.4 25.9 11 25.1V20.3ZM23.6 37.5C23.6 37.5 23.6 41.2 23.6 42.4C22.2 41.6 19.4 40 19.4 40V35C20.4 35.6 23.6 37.5 23.6 37.5ZM23.6 52.1C23.4 52.1 23.3 52 23.2 51.9C23.2 51.9 23.2 51.9 23.1 51.9C21.2 50.8 19.2 49.6 17.3 48.5C15.4 47.4 13.4 46.2 11.5 45.1C11.5 45.1 11.4 45.1 11.4 45C11.3 44.9 11.2 44.8 11 44.9V30.1C12.4 30.9 13.7 31.7 15.1 32.4C15.3 32.5 15.3 32.7 15.3 32.8V32.9C15.3 33.6 15.3 34.4 15.3 35.1C15.3 37.3 15.3 39.5 15.3 41.8C15.3 42.2 15.4 42.3 15.7 42.5C16.9 43.2 18.2 43.9 19.4 44.7C20.7 45.4 21.9 46.2 23.2 46.9C23.5 47.1 23.6 47.2 23.6 47.5C23.6 48.6 23.6 49.7 23.6 50.8C23.6 51.3 23.6 51.7 23.6 52.1ZM35.4 55.1C34.5 55.5 33.7 56 32.9 56.5L32.6 56.7L32.4 56.8C32.1 57 31.9 57 31.7 56.8C30.5 56.1 29.3 55.4 28.1 54.7C28 54.6 27.8 54.5 27.8 54.3C27.8 52.8 27.8 51.2 27.8 49.6C28.1 49.8 28.5 50 28.8 50.2C29.8 50.8 30.7 51.3 31.6 51.9C31.9 52.1 32.1 52.1 32.4 51.9C33.2 51.4 34.1 50.9 35 50.4L35.3 50.2C35.5 50.1 35.6 50 35.8 49.9C35.9 49.8 36.1 49.7 36.3 49.7C36.3 49.9 36.3 50.1 36.3 50.4V50.9C36.3 51.8 36.3 52.7 36.3 53.6C36.3 54.4 36 54.8 35.4 55.1ZM36.6 34.7C36.3 34.9 36.2 35.1 36.2 35.4C36.2 36.9 36.2 38.4 36.2 39.8C36.2 41.3 36.2 42.8 36.2 44.2C36.2 44.5 36.1 44.7 35.8 44.9C34.6 45.6 33.4 46.3 32.3 46.9C32.1 47 31.9 47 31.6 46.9C30.4 46.2 29.3 45.5 28.1 44.8C27.8 44.6 27.7 44.5 27.7 44.2C27.7 43.1 27.7 41.9 27.7 40.8C27.7 40.4 27.7 40 27.7 39.7C27.7 39.3 27.7 38.9 27.7 38.5C27.7 37.5 27.7 36.5 27.7 35.5C27.7 35.1 27.6 34.8 27.2 34.6C26 33.9 24.7 33.2 23.5 32.4C22.3 31.7 21 31 19.8 30.2C19.5 30 19.4 29.8 19.4 29.4C19.4 28.1 19.4 26.7 19.4 25.4C19.4 25.1 19.5 24.9 19.8 24.8C21 24.1 22.2 23.4 23.3 22.8C23.6 22.6 23.7 22.7 24 22.8C25.3 23.5 26.5 24.3 27.8 25C29.1 25.7 30.3 26.5 31.6 27.2C32 27.4 32.2 27.4 32.6 27.2C33.9 26.5 35.1 25.7 36.4 25C37.6 24.3 38.9 23.5 40.1 22.8C40.4 22.6 40.6 22.6 40.8 22.8C42 23.5 43.1 24.2 44.3 24.9C44.6 25 44.6 25.2 44.6 25.5C44.6 26.9 44.6 28.2 44.6 29.6C44.6 29.9 44.5 30.1 44.2 30.2C42.8 31 41.4 31.8 40.1 32.6C38.9 33.4 37.8 34.1 36.6 34.7ZM44.6 35V40C44.6 40 41.8 41.6 40.4 42.4C40.4 41.2 40.4 37.5 40.4 37.5C40.4 37.5 43.5 35.6 44.6 35ZM53 44.9C52.8 44.9 52.7 45 52.6 45.1C52.5 45.1 52.5 45.2 52.4 45.2L52.3 45.3C48.5 47.5 44.7 49.8 40.8 52C40.7 52.1 40.5 52.1 40.4 52.2C40.4 52.1 40.3 52.1 40.3 52C40.3 51.9 40.3 51.9 40.3 51.8V51.7C40.3 51.4 40.3 51.1 40.3 50.8C40.3 50.6 40.3 50.3 40.3 50.1C40.3 49.4 40.3 48.6 40.3 47.9C40.3 47.5 40.4 47.4 40.7 47.2C42 46.5 43.2 45.7 44.5 45C45.8 44.3 47 43.5 48.3 42.8C48.6 42.6 48.7 42.5 48.7 42.1C48.7 40.6 48.7 39.1 48.7 37.6C48.7 36.1 48.7 34.6 48.7 33.1C48.7 32.8 48.8 32.6 49.1 32.4C50.4 31.7 51.7 30.9 53 30.2C53 35 53 39.9 53 44.9Z" fill="url(#paint0_linear_1490_1027)"/>
<path d="M32.5 0C14.6 0 0 14.6 0 32.5C0 50.4 14.6 65 32.5 65C50.4 65 65 50.4 65 32.5C65 14.6 50.4 0 32.5 0ZM45.3 19.8C46.3 19.2 47.4 18.6 48.4 18C48.6 17.9 48.8 17.9 49 18C49.5 18.3 50.1 18.6 50.6 19L51.2 19.4C51.8 19.7 52.3 20 52.9 20.4V25.3C52.2 25.7 51.6 26.1 50.9 26.5L48.7 27.8C48.7 27.4 48.7 27 48.7 26.6C48.7 25.9 48.7 25.1 48.7 24.4C48.7 24.2 48.7 24.1 48.7 23.9C48.7 23.5 48.8 23.1 48.6 22.8C48.4 22.5 48.1 22.4 47.7 22.2H47.6C47.6 22.2 47.5 22.2 47.5 22.1C47.5 22.1 47.4 22.1 47.4 22C47 21.7 46.5 21.5 46.1 21.2C45.7 20.9 45.2 20.7 44.8 20.4C44.8 20.4 44.8 20.4 44.7 20.3L45.3 19.8ZM20 15L20.1 14.9C23.9 12.7 27.6 10.5 31.4 8.3C31.4 8.3 31.4 8.3 31.5 8.3C31.6 8.3 31.7 8.2 31.8 8.1C31.9 8.1 31.9 8.1 32 8.1H32.2C32.4 8.3 32.7 8.5 32.9 8.6C33 8.6 33.1 8.7 33.2 8.7C35.4 10 37.7 11.3 39.9 12.6L40.1 12.7C41.4 13.5 42.8 14.3 44.1 15C44.2 15.1 44.4 15.2 44.5 15.3C44.5 15.5 44.3 15.5 44.2 15.6C43.7 15.9 43.2 16.2 42.7 16.5C42.4 16.7 42.1 16.9 41.8 17C41.5 17.2 41.2 17.4 40.8 17.6C40.5 17.8 40.4 17.7 40.1 17.6C39.2 17.1 38.3 16.5 37.3 16L36.2 15.4C34.9 14.7 33.7 13.9 32.4 13.2C32.1 13 31.9 13 31.6 13.2C30.7 13.8 29.7 14.3 28.8 14.9L27.8 15.5C26.5 16.2 25.3 17 24 17.7C23.7 17.8 23.6 17.9 23.3 17.7C22.5 17.2 21.7 16.7 20.9 16.3C20.6 16.1 20.2 15.9 19.9 15.7C19.9 15.7 19.8 15.7 19.8 15.6C19.7 15.6 19.7 15.5 19.6 15.5C19.6 15.2 19.8 15.1 20 15ZM36.2 20.3C35.4 20.8 34.6 21.2 33.8 21.7H33.7C33.2 22 32.7 22.3 32.2 22.6C32.1 22.7 32 22.7 31.8 22.6C30.7 22 29.7 21.4 28.6 20.7L27.8 20.2C28.7 19.7 29.5 19.2 30.3 18.7C30.5 18.6 30.6 18.5 30.8 18.3C31.2 18 31.6 17.7 32 17.8C32.4 17.8 32.8 18.1 33.2 18.4C33.3 18.5 33.4 18.6 33.6 18.7C33.6 18.7 33.7 18.7 33.7 18.8C34.5 19.3 35.3 19.7 36.1 20.2C36.1 20.2 36.1 20.2 36.2 20.3ZM11 20.3L12.1 19.7C13.1 19.1 14 18.6 15 18C15.2 17.9 15.3 17.9 15.5 18C16.5 18.6 17.6 19.2 18.6 19.8L19.4 20.3C19.4 20.4 19.3 20.5 19.2 20.5C19.2 20.5 19.2 20.5 19.1 20.5L18.8 20.7H18.7L18.4 20.8C17.5 21.3 16.7 21.8 15.8 22.3C15.4 22.5 15.2 22.8 15.2 23.3C15.2 24.3 15.2 25.3 15.2 26.3V27.6C13.7 26.8 12.4 25.9 11 25.1V20.3ZM23.6 37.5C23.6 37.5 23.6 41.2 23.6 42.4C22.2 41.6 19.4 40 19.4 40V35C20.4 35.6 23.6 37.5 23.6 37.5ZM23.6 52.1C23.4 52.1 23.3 52 23.2 51.9C23.2 51.9 23.2 51.9 23.1 51.9C21.2 50.8 19.2 49.6 17.3 48.5C15.4 47.4 13.4 46.2 11.5 45.1C11.5 45.1 11.4 45.1 11.4 45C11.3 44.9 11.2 44.8 11 44.9V30.1C12.4 30.9 13.7 31.7 15.1 32.4C15.3 32.5 15.3 32.7 15.3 32.8V32.9C15.3 33.6 15.3 34.4 15.3 35.1C15.3 37.3 15.3 39.5 15.3 41.8C15.3 42.2 15.4 42.3 15.7 42.5C16.9 43.2 18.2 43.9 19.4 44.7C20.7 45.4 21.9 46.2 23.2 46.9C23.5 47.1 23.6 47.2 23.6 47.5C23.6 48.6 23.6 49.7 23.6 50.8C23.6 51.3 23.6 51.7 23.6 52.1ZM35.4 55.1C34.5 55.5 33.7 56 32.9 56.5L32.6 56.7L32.4 56.8C32.1 57 31.9 57 31.7 56.8C30.5 56.1 29.3 55.4 28.1 54.7C28 54.6 27.8 54.5 27.8 54.3C27.8 52.8 27.8 51.2 27.8 49.6C28.1 49.8 28.5 50 28.8 50.2C29.8 50.8 30.7 51.3 31.6 51.9C31.9 52.1 32.1 52.1 32.4 51.9C33.2 51.4 34.1 50.9 35 50.4L35.3 50.2C35.5 50.1 35.6 50 35.8 49.9C35.9 49.8 36.1 49.7 36.3 49.7C36.3 49.9 36.3 50.1 36.3 50.4V50.9C36.3 51.8 36.3 52.7 36.3 53.6C36.3 54.4 36 54.8 35.4 55.1ZM36.6 34.7C36.3 34.9 36.2 35.1 36.2 35.4C36.2 36.9 36.2 38.4 36.2 39.8C36.2 41.3 36.2 42.8 36.2 44.2C36.2 44.5 36.1 44.7 35.8 44.9C34.6 45.6 33.4 46.3 32.3 46.9C32.1 47 31.9 47 31.6 46.9C30.4 46.2 29.3 45.5 28.1 44.8C27.8 44.6 27.7 44.5 27.7 44.2C27.7 43.1 27.7 41.9 27.7 40.8C27.7 40.4 27.7 40 27.7 39.7C27.7 39.3 27.7 38.9 27.7 38.5C27.7 37.5 27.7 36.5 27.7 35.5C27.7 35.1 27.6 34.8 27.2 34.6C26 33.9 24.7 33.2 23.5 32.4C22.3 31.7 21 31 19.8 30.2C19.5 30 19.4 29.8 19.4 29.4C19.4 28.1 19.4 26.7 19.4 25.4C19.4 25.1 19.5 24.9 19.8 24.8C21 24.1 22.2 23.4 23.3 22.8C23.6 22.6 23.7 22.7 24 22.8C25.3 23.5 26.5 24.3 27.8 25C29.1 25.7 30.3 26.5 31.6 27.2C32 27.4 32.2 27.4 32.6 27.2C33.9 26.5 35.1 25.7 36.4 25C37.6 24.3 38.9 23.5 40.1 22.8C40.4 22.6 40.6 22.6 40.8 22.8C42 23.5 43.1 24.2 44.3 24.9C44.6 25 44.6 25.2 44.6 25.5C44.6 26.9 44.6 28.2 44.6 29.6C44.6 29.9 44.5 30.1 44.2 30.2C42.8 31 41.4 31.8 40.1 32.6C38.9 33.4 37.8 34.1 36.6 34.7ZM44.6 35V40C44.6 40 41.8 41.6 40.4 42.4C40.4 41.2 40.4 37.5 40.4 37.5C40.4 37.5 43.5 35.6 44.6 35ZM53 44.9C52.8 44.9 52.7 45 52.6 45.1C52.5 45.1 52.5 45.2 52.4 45.2L52.3 45.3C48.5 47.5 44.7 49.8 40.8 52C40.7 52.1 40.5 52.1 40.4 52.2C40.4 52.1 40.3 52.1 40.3 52C40.3 51.9 40.3 51.9 40.3 51.8V51.7C40.3 51.4 40.3 51.1 40.3 50.8C40.3 50.6 40.3 50.3 40.3 50.1C40.3 49.4 40.3 48.6 40.3 47.9C40.3 47.5 40.4 47.4 40.7 47.2C42 46.5 43.2 45.7 44.5 45C45.8 44.3 47 43.5 48.3 42.8C48.6 42.6 48.7 42.5 48.7 42.1C48.7 40.6 48.7 39.1 48.7 37.6C48.7 36.1 48.7 34.6 48.7 33.1C48.7 32.8 48.8 32.6 49.1 32.4C50.4 31.7 51.7 30.9 53 30.2C53 35 53 39.9 53 44.9Z" fill="#F4C148"/>
</g>
<defs>
<linearGradient id="paint0_linear_1490_1027" x1="32.5" y1="0" x2="32" y2="73" gradientUnits="userSpaceOnUse">
<stop stop-color="#F0BA01"/>
<stop offset="1" stop-color="#E4A608"/>
</linearGradient>
<clipPath id="clip0_1490_1027">
<rect width="65" height="65" fill="white"/>
</clipPath>
</defs>
</svg>
